<svg width="605" height="117" viewBox="0 0 605 117" fill="none" xmlns="http://www.w3.org/2000/svg">
<path d="M34.9888 90.5779L34.9643 90.5534C34.9623 90.5521 34.9608 90.5502 34.9598 90.5481L19.659 75.2469L4.35834 90.5477C4.35658 90.5495 4.35559 90.5519 4.35382 90.553L4.32857 90.5775C1.98889 92.9303 0.502788 95.9977 0.106512 99.2921C-0.289764 102.587 0.426527 105.919 2.14151 108.759C3.8565 111.6 6.47176 113.786 9.57158 114.969C12.6714 116.153 16.0778 116.266 19.2494 115.291C19.5163 115.21 19.8015 115.21 20.0684 115.291C23.2398 116.266 26.646 116.152 29.7456 114.969C32.8452 113.785 35.4602 111.599 37.1751 108.759C38.89 105.919 39.6063 102.587 39.2102 99.2923C38.8141 95.9981 37.3282 92.9307 34.9888 90.5779ZM9.79905 100.668C9.72457 100.742 9.6655 100.831 9.62521 100.928C9.58491 101.025 9.56417 101.129 9.56419 101.235C9.59141 103.935 10.3546 106.577 11.7716 108.876C11.8038 108.928 11.8187 108.989 11.8141 109.05C11.8096 109.112 11.7858 109.17 11.7462 109.216C11.7066 109.263 11.6533 109.296 11.5938 109.311C11.5343 109.326 11.4716 109.321 11.4149 109.298C10.3496 108.85 9.38187 108.198 8.56577 107.38C6.89329 105.707 5.95305 103.439 5.95153 101.074C5.95001 98.7083 6.88734 96.4389 8.55769 94.764L19.659 83.6638L30.7597 94.764C32.4303 96.4387 33.368 98.7081 33.3664 101.074C33.365 103.439 32.4246 105.707 30.752 107.38C29.9359 108.198 28.9682 108.85 27.9031 109.298C27.8462 109.321 27.7836 109.326 27.7241 109.311C27.6647 109.296 27.6113 109.263 27.5716 109.216C27.5321 109.17 27.5082 109.112 27.5036 109.05C27.4991 108.989 27.5139 108.928 27.5461 108.876C28.9635 106.577 29.727 103.935 29.7547 101.235C29.7547 101.129 29.7338 101.025 29.6933 100.928C29.6528 100.83 29.5935 100.742 29.5188 100.668L24.2681 95.0982C24.2157 95.0545 24.15 95.0306 24.0818 95.0306C24.0138 95.0306 23.9478 95.0545 23.8957 95.0982C23.8433 95.1417 23.8082 95.2023 23.7959 95.2693C23.7837 95.3363 23.7953 95.4052 23.8289 95.4645C25.8682 99.1548 24.1146 104.456 21.1902 107.38L21.1748 107.396C20.7712 107.795 20.2263 108.019 19.6586 108.019C19.0908 108.018 18.5461 107.794 18.1427 107.395L18.1285 107.38C15.2031 104.456 13.4504 99.1554 15.49 95.4653C15.5235 95.406 15.5352 95.337 15.523 95.2701C15.5108 95.2031 15.4755 95.1424 15.4233 95.099C15.371 95.0553 15.3051 95.0314 15.2371 95.0314C15.169 95.0314 15.1031 95.0553 15.0508 95.099L9.79905 100.668Z" fill="#52525B"/>
<path d="M72.6308 88.026H77.6948L72.4421 105.577H66.6547L64.2013 95.1973L61.7165 105.577H55.9291L50.6764 88.026H56.0549L58.7914 100.356L61.4963 88.026H67.1894L69.8944 100.356L72.6308 88.026Z" fill="#52525B"/>
<path d="M90.8489 100.01C91.6248 99.2548 92.0127 98.1854 92.0127 96.8015C92.0127 95.4175 91.6248 94.3586 90.8489 93.6247C90.0731 92.8698 89.1819 92.4924 88.1754 92.4924C87.1689 92.4924 86.2777 92.8698 85.5019 93.6247C84.726 94.3796 84.3381 95.449 84.3381 96.8329C84.3381 98.2169 84.726 99.2863 85.5019 100.041C86.2777 100.775 87.1689 101.142 88.1754 101.142C89.1819 101.142 90.0731 100.765 90.8489 100.01ZM81.1928 103.281C79.6411 101.603 78.8652 99.454 78.8652 96.8329C78.8652 94.2118 79.6411 92.0625 81.1928 90.385C82.7445 88.6865 84.6317 87.8373 86.8544 87.8373C89.098 87.8373 90.8175 88.6655 92.0127 90.3221V88.026H97.3912V105.577H92.0127V103.029C90.7126 104.874 88.9722 105.797 86.7915 105.797C84.6107 105.797 82.7445 104.958 81.1928 103.281Z" fill="#52525B"/>
<path d="M99.8837 88.026H105.608L109.603 101.079L113.597 88.026H119.322L113.094 105.577H106.111L99.8837 88.026Z" fill="#52525B"/>
<path d="M129.26 105.797C126.702 105.797 124.605 104.979 122.97 103.344C121.334 101.687 120.516 99.496 120.516 96.77C120.516 94.0441 121.324 91.8738 122.938 90.2592C124.574 88.6446 126.681 87.8373 129.26 87.8373C131.839 87.8373 133.978 88.6341 135.677 90.2277C137.375 91.8214 138.225 94.0336 138.225 96.8644C138.225 97.4725 138.183 98.0386 138.099 98.5629H126.021C126.125 99.3387 126.471 99.9783 127.059 100.482C127.646 100.964 128.275 101.205 128.946 101.205C129.638 101.205 130.151 101.142 130.487 101.016C130.823 100.869 131.064 100.733 131.21 100.607C131.378 100.461 131.588 100.23 131.839 99.9153H137.658C137.155 101.677 136.149 103.103 134.639 104.193C133.129 105.262 131.336 105.797 129.26 105.797ZM132.626 95.1973C132.542 94.3796 132.185 93.719 131.556 93.2158C130.927 92.6916 130.183 92.4295 129.323 92.4295C128.464 92.4295 127.74 92.6916 127.153 93.2158C126.566 93.719 126.199 94.3796 126.052 95.1973H132.626Z" fill="#52525B"/>
<path d="M147.058 88.026V91.2971C148.316 88.9906 149.993 87.8373 152.09 87.8373V93.3102H150.769C149.532 93.3102 148.599 93.6037 147.97 94.1908C147.362 94.778 147.058 95.8054 147.058 97.2733V105.577H141.679V88.026H147.058Z" fill="#52525B"/>
<path d="M159.917 86.0444C159.309 86.6525 158.564 86.9566 157.684 86.9566C156.803 86.9566 156.058 86.6525 155.45 86.0444C154.842 85.4363 154.538 84.6919 154.538 83.8112C154.538 82.9096 154.842 82.1547 155.45 81.5466C156.058 80.9385 156.803 80.6345 157.684 80.6345C158.564 80.6345 159.309 80.9385 159.917 81.5466C160.525 82.1547 160.829 82.9096 160.829 83.8112C160.829 84.6919 160.525 85.4363 159.917 86.0444ZM155.01 105.577V88.026H160.389V105.577H155.01Z" fill="#52525B"/>
<path d="M175.652 100.073C176.365 99.3177 176.722 98.2274 176.722 96.8015C176.722 95.3756 176.355 94.2957 175.621 93.5618C174.887 92.8069 174.017 92.4295 173.01 92.4295C172.004 92.4295 171.134 92.8069 170.4 93.5618C169.687 94.2957 169.33 95.3756 169.33 96.8015C169.33 98.2274 169.697 99.3177 170.431 100.073C171.186 100.827 172.067 101.205 173.073 101.205C174.08 101.205 174.94 100.827 175.652 100.073ZM166.5 103.312C164.738 101.656 163.857 99.475 163.857 96.77C163.857 94.065 164.738 91.9052 166.5 90.2906C168.261 88.6551 170.442 87.8373 173.042 87.8373C175.642 87.8373 177.812 88.6551 179.553 90.2906C181.314 91.9052 182.195 94.065 182.195 96.77C182.195 99.475 181.325 101.656 179.584 103.312C177.844 104.969 175.673 105.797 173.073 105.797C170.473 105.797 168.282 104.969 166.5 103.312Z" fill="#52525B"/>
<path d="M289.58 80.414L291.225 78.7694C294.454 75.5398 299.712 75.4599 302.96 78.6709C304.191 79.8903 305.009 81.4646 305.299 83.1727C305.589 84.8808 305.337 86.6369 304.578 88.1943C304.214 88.9382 304.091 89.7773 304.227 90.5944C304.363 91.4115 304.75 92.1657 305.336 92.7517C306.412 91.6729 307.265 90.3925 307.847 88.9838C308.428 87.5751 308.726 86.0657 308.724 84.5418C308.722 83.0179 308.419 81.5093 307.834 80.1023C307.249 78.6952 306.392 77.4173 305.312 76.3415C300.77 71.8251 293.398 71.915 288.869 76.4441L273.193 92.1196L271.904 90.8309C268.62 87.5465 268.599 82.1779 271.941 78.9519C273.178 77.7615 274.754 76.9844 276.452 76.7279C278.15 76.4713 279.885 76.7481 281.419 77.5198C282.119 77.8786 282.914 78.0069 283.691 77.8865C284.469 77.7661 285.188 77.4031 285.747 76.8495L285.787 76.8097C285.799 76.7974 285.809 76.7827 285.816 76.7665C285.823 76.7503 285.826 76.7329 285.826 76.7154C285.826 76.6979 285.823 76.6805 285.816 76.6643C285.809 76.6482 285.799 76.6335 285.787 76.6211C283.629 74.5177 280.738 73.3363 277.725 73.3267C274.712 73.3172 271.813 74.4803 269.642 76.5699C264.966 81.0842 264.983 88.591 269.579 93.1871L285.25 108.858L283.585 110.523C280.356 113.753 275.098 113.833 271.85 110.622C270.619 109.402 269.801 107.828 269.511 106.12C269.221 104.412 269.473 102.656 270.232 101.098C270.596 100.354 270.719 99.5152 270.583 98.6983C270.447 97.8812 270.059 97.1268 269.474 96.5408C268.398 97.6198 267.545 98.9 266.963 100.309C266.382 101.717 266.084 103.227 266.086 104.751C266.088 106.275 266.391 107.783 266.976 109.19C267.561 110.597 268.418 111.875 269.497 112.951C274.039 117.468 281.412 117.378 285.941 112.849L301.637 97.1522L302.931 98.4458C306.161 101.675 306.241 106.933 303.03 110.181C301.81 111.412 300.236 112.23 298.528 112.52C296.82 112.81 295.064 112.558 293.506 111.799C292.762 111.435 291.922 111.312 291.105 111.448C290.288 111.584 289.533 111.972 288.947 112.558C290.026 113.634 291.306 114.487 292.715 115.069C294.124 115.65 295.633 115.948 297.157 115.946C298.681 115.944 300.19 115.641 301.597 115.056C303.004 114.471 304.282 113.614 305.357 112.534C309.874 107.993 309.784 100.62 305.255 96.0908L289.58 80.414ZM287.59 106.517L275.533 94.4606L287.239 82.7552L299.296 94.8119L287.59 106.517Z" fill="#52525B"/>
<path d="M328.74 108.628C326.34 108.628 324.506 107.924 323.237 106.517C321.978 105.109 321.274 103.186 321.126 100.747L324.933 99.795C325.121 103.602 326.39 105.505 328.74 105.505C330.643 105.505 331.595 104.554 331.595 102.65C331.595 102.085 331.515 101.565 331.357 101.089C331.208 100.603 330.975 100.162 330.658 99.7652C330.341 99.3587 330.053 99.0365 329.795 98.7986C329.538 98.5508 329.186 98.2484 328.74 97.8915L323.981 94.0845C323.108 93.4005 322.409 92.533 321.884 91.4821C321.368 90.4213 321.111 89.2168 321.111 87.8685C321.111 85.9055 321.72 84.344 322.94 83.1841C324.159 82.0242 325.775 81.4442 327.788 81.4442C329.949 81.4442 331.664 81.9746 332.933 83.0354C334.212 84.0863 335 85.5783 335.298 87.5116C335.327 87.7198 335.362 88.0073 335.402 88.3741L331.595 89.3258C331.585 89.1573 331.56 88.9045 331.52 88.5674C331.352 87.3579 330.97 86.3913 330.375 85.6676C329.79 84.9339 328.928 84.5671 327.788 84.5671C326.876 84.5671 326.172 84.8249 325.676 85.3404C325.18 85.846 324.933 86.5549 324.933 87.4669C324.933 88.964 325.567 90.2181 326.836 91.2293L331.595 95.0363C334.133 97.0884 335.402 99.5422 335.402 102.397C335.402 104.35 334.797 105.877 333.587 106.978C332.388 108.078 330.772 108.628 328.74 108.628Z" fill="#52525B"/>
<path d="M343.358 105.505C344.359 105.505 345.311 105.248 346.213 104.732V92.9543C346.173 92.9345 346.074 92.875 345.915 92.7759C345.757 92.6767 345.643 92.6123 345.573 92.5826C345.514 92.5429 345.41 92.4834 345.261 92.4041C345.112 92.3248 344.988 92.2703 344.889 92.2405C344.8 92.2009 344.681 92.1612 344.532 92.1216C344.394 92.072 344.255 92.0373 344.116 92.0175C343.987 91.9976 343.848 91.9877 343.7 91.9877C343.382 91.9877 343.1 92.0621 342.852 92.2108C342.614 92.3496 342.416 92.5181 342.257 92.7164C342.099 92.9147 341.96 93.1972 341.841 93.564C341.732 93.9309 341.652 94.258 341.603 94.5455C341.553 94.8231 341.514 95.1998 341.484 95.6757C341.454 96.1417 341.434 96.5035 341.424 96.7613C341.424 97.0191 341.424 97.3809 341.424 97.8469C341.424 97.8667 341.424 97.8816 341.424 97.8915C341.424 98.06 341.424 98.3327 341.424 98.7094C341.424 99.0861 341.424 99.448 341.424 99.795C341.424 100.142 341.424 100.469 341.424 100.776C341.434 101.441 341.464 102.026 341.514 102.531C341.573 103.027 341.667 103.518 341.796 104.003C341.935 104.479 342.133 104.851 342.391 105.119C342.659 105.377 342.981 105.505 343.358 105.505ZM346.213 114.071V106.65C345.648 107.235 345.063 107.711 344.458 108.078C343.863 108.445 343.179 108.628 342.406 108.628C341.672 108.628 341.018 108.445 340.443 108.078C339.878 107.701 339.422 107.221 339.075 106.636C338.738 106.051 338.455 105.362 338.227 104.569C338.009 103.766 337.855 102.977 337.766 102.204C337.687 101.431 337.647 100.628 337.647 99.795V96.8951C337.647 96.0326 337.687 95.2445 337.766 94.5306C337.845 93.8168 337.989 93.1129 338.197 92.419C338.406 91.725 338.678 91.1401 339.015 90.6642C339.362 90.1784 339.818 89.7918 340.383 89.5043C340.949 89.2068 341.603 89.0581 342.346 89.0581C342.773 89.0581 343.169 89.1176 343.536 89.2366C343.913 89.3456 344.27 89.5241 344.607 89.7719C344.954 90.0198 345.221 90.2379 345.41 90.4263C345.608 90.6047 345.876 90.8724 346.213 91.2293V89.3258H350.02V114.071H346.213Z" fill="#52525B"/>
<path d="M355.79 108.628C354.957 108.628 354.288 108.336 353.782 107.751C353.277 107.156 353.024 106.422 353.024 105.55V89.3258H356.831V104.39C356.831 104.787 356.95 105.109 357.188 105.357C357.435 105.605 357.753 105.728 358.139 105.728C358.348 105.728 358.551 105.704 358.749 105.654C358.947 105.605 359.141 105.52 359.329 105.401C359.527 105.272 359.681 105.173 359.79 105.104C359.899 105.025 360.053 104.896 360.251 104.717C360.459 104.539 360.588 104.43 360.638 104.39V89.3258H364.445V108.361H360.638V106.308C360.261 106.636 359.983 106.874 359.805 107.022C359.636 107.171 359.374 107.374 359.017 107.632C358.66 107.88 358.343 108.063 358.065 108.182C357.797 108.291 357.46 108.39 357.054 108.48C356.647 108.579 356.226 108.628 355.79 108.628Z" fill="#52525B"/>
<path d="M372.981 105.505C373.248 105.505 373.506 105.426 373.754 105.267C374.012 105.109 374.205 104.955 374.334 104.806C374.463 104.658 374.621 104.459 374.81 104.212C374.839 104.162 374.864 104.127 374.884 104.108V98.8432C374.725 98.9523 374.463 99.1208 374.096 99.3488C373.729 99.5769 373.437 99.7652 373.219 99.9139C373 100.053 372.738 100.251 372.43 100.509C372.123 100.757 371.885 101 371.717 101.237C371.548 101.465 371.399 101.748 371.27 102.085C371.142 102.422 371.077 102.774 371.077 103.141C371.077 104.717 371.712 105.505 372.981 105.505ZM371.077 108.628C370.016 108.628 369.114 108.172 368.371 107.26C367.637 106.338 367.27 105.302 367.27 104.152C367.27 103.23 367.424 102.392 367.731 101.639C368.048 100.885 368.38 100.286 368.727 99.8396C369.074 99.3835 369.654 98.9176 370.467 98.4417C371.28 97.9559 371.895 97.6238 372.311 97.4454C372.728 97.2669 373.451 96.9744 374.483 96.568C374.661 96.4986 374.795 96.444 374.884 96.4044V95.0363C374.884 94.0746 374.75 93.3311 374.483 92.8056C374.215 92.2703 373.714 92.0026 372.981 92.0026C372.326 92.0026 371.855 92.2306 371.568 92.6866C371.29 93.1328 371.132 93.7524 371.092 94.5455C371.082 94.6546 371.077 94.8182 371.077 95.0363H367.27C367.29 93.2121 367.801 91.7597 368.802 90.6791C369.803 89.5984 371.196 89.0581 372.981 89.0581C374.755 89.0581 376.148 89.6084 377.159 90.7088C378.18 91.7993 378.691 93.2418 378.691 95.0363V103.602C378.691 105.585 378.855 107.171 379.182 108.361H375.39L374.884 105.505C374.686 105.902 374.522 106.209 374.393 106.427C374.274 106.646 374.096 106.918 373.858 107.245C373.62 107.563 373.382 107.81 373.144 107.989C372.906 108.157 372.609 108.306 372.252 108.435C371.895 108.564 371.503 108.628 371.077 108.628Z" fill="#52525B"/>
<path d="M381.977 108.361V89.3258H385.784V91.8687C386.171 91.1153 386.731 90.461 387.465 89.9058C388.208 89.3407 389.031 89.0581 389.933 89.0581C389.963 89.0581 390.166 89.078 390.543 89.1176V93.3261C389.839 93.0485 389.135 92.9097 388.431 92.9097C387.638 92.9097 386.999 93.1476 386.513 93.6235C386.027 94.0994 385.784 94.7289 385.784 95.5121V108.361H381.977Z" fill="#52525B"/>
<path d="M397.533 108.628C396.611 108.628 395.807 108.47 395.123 108.152C394.449 107.835 393.909 107.424 393.502 106.918C393.106 106.403 392.784 105.748 392.536 104.955C392.288 104.152 392.115 103.354 392.015 102.561C391.926 101.758 391.872 100.826 391.852 99.7652C391.822 98.9324 391.822 98.0997 391.852 97.2669C391.882 96.2755 391.946 95.3981 392.045 94.6347C392.154 93.8615 392.338 93.1129 392.595 92.3892C392.853 91.6655 393.185 91.0707 393.592 90.6047C394.008 90.1388 394.548 89.767 395.213 89.4894C395.887 89.2019 396.67 89.0581 397.562 89.0581C398.375 89.0581 399.089 89.1672 399.704 89.3853C400.328 89.5935 400.844 89.9157 401.25 90.3519C401.667 90.7782 402.009 91.2541 402.276 91.7795C402.554 92.305 402.762 92.9444 402.901 93.6979C403.04 94.4414 403.134 95.1751 403.183 95.8988C403.243 96.6225 403.273 97.4553 403.273 98.3971V98.8432H395.659V99.795C395.659 99.9238 395.659 100.127 395.659 100.405C395.639 100.771 395.634 101.153 395.644 101.55C395.664 101.936 395.684 102.318 395.703 102.695C395.723 103.072 395.778 103.433 395.867 103.78C395.956 104.117 396.065 104.415 396.194 104.673C396.323 104.93 396.501 105.134 396.729 105.282C396.967 105.431 397.245 105.505 397.562 105.505C397.959 105.505 398.286 105.431 398.544 105.282C398.801 105.124 398.99 104.891 399.109 104.583C399.238 104.276 399.327 103.969 399.377 103.661C399.426 103.354 399.456 102.967 399.466 102.501V101.698H403.243V102.457C403.154 104.489 402.653 106.026 401.741 107.067C400.829 108.108 399.426 108.628 397.533 108.628ZM395.659 96.9397H399.436V95.7947C399.426 95.2891 399.396 94.8479 399.347 94.4712C399.297 94.0944 399.208 93.7177 399.079 93.341C398.96 92.9642 398.772 92.6767 398.514 92.4785C398.256 92.2802 397.939 92.181 397.562 92.181C397.176 92.181 396.848 92.2851 396.581 92.4933C396.323 92.7015 396.13 93.0039 396.001 93.4005C395.882 93.7871 395.798 94.1688 395.748 94.5455C395.698 94.9222 395.669 95.3733 395.659 95.8988V96.9397Z" fill="#52525B"/>
<path d="M413.147 108.628C410.748 108.628 408.914 107.924 407.645 106.517C406.386 105.109 405.682 103.186 405.533 100.747L409.34 99.795C409.528 103.602 410.797 105.505 413.147 105.505C415.05 105.505 416.002 104.554 416.002 102.65C416.002 102.085 415.923 101.565 415.764 101.089C415.616 100.603 415.383 100.162 415.065 99.7652C414.748 99.3587 414.461 99.0365 414.203 98.7986C413.945 98.5508 413.593 98.2484 413.147 97.8915L408.388 94.0845C407.516 93.4005 406.817 92.533 406.291 91.4821C405.776 90.4213 405.518 89.2168 405.518 87.8685C405.518 85.9055 406.128 84.344 407.347 83.1841C408.567 82.0242 410.183 81.4442 412.195 81.4442C414.357 81.4442 416.072 81.9746 417.341 83.0354C418.62 84.0863 419.408 85.5783 419.705 87.5116C419.735 87.7198 419.77 88.0073 419.809 88.3741L416.002 89.3258C415.992 89.1573 415.968 88.9045 415.928 88.5674C415.759 87.3579 415.378 86.3913 414.783 85.6676C414.198 84.9339 413.335 84.5671 412.195 84.5671C411.283 84.5671 410.579 84.8249 410.084 85.3404C409.588 85.846 409.34 86.5549 409.34 87.4669C409.34 88.964 409.975 90.2181 411.244 91.2293L416.002 95.0363C418.54 97.0884 419.809 99.5422 419.809 102.397C419.809 104.35 419.204 105.877 417.995 106.978C416.795 108.078 415.179 108.628 413.147 108.628Z" fill="#52525B"/>
<path d="M427.706 108.628C426.209 108.628 425.118 108.247 424.434 107.483C423.76 106.72 423.413 105.565 423.393 104.018V92.181H421.49V89.3258H423.393V82.6636H427.2V89.3258H430.055V92.181H427.2V103.29C427.2 104.053 427.304 104.613 427.512 104.97C427.721 105.327 428.142 105.505 428.776 105.505C429.054 105.505 429.48 105.456 430.055 105.357V108.45C429.104 108.569 428.32 108.628 427.706 108.628Z" fill="#52525B"/>
<path d="M442.458 106.844C441.575 108.033 440.113 108.628 438.071 108.628C436.028 108.628 434.566 108.033 433.684 106.844C432.801 105.654 432.36 103.939 432.36 101.698V95.988C432.36 93.7474 432.801 92.0323 433.684 90.8427C434.566 89.653 436.028 89.0581 438.071 89.0581C440.113 89.0581 441.575 89.653 442.458 90.8427C443.34 92.0323 443.781 93.7474 443.781 95.988V101.698C443.781 103.939 443.34 105.654 442.458 106.844ZM437.357 105.386C437.565 105.466 437.803 105.505 438.071 105.505C438.338 105.505 438.571 105.466 438.77 105.386C438.978 105.307 439.146 105.213 439.275 105.104C439.414 104.985 439.528 104.816 439.617 104.598C439.707 104.37 439.776 104.172 439.825 104.003C439.875 103.835 439.91 103.592 439.93 103.275C439.949 102.958 439.959 102.71 439.959 102.531C439.969 102.343 439.974 102.065 439.974 101.698V95.988C439.974 95.6212 439.969 95.3485 439.959 95.1701C439.959 94.9817 439.949 94.7289 439.93 94.4117C439.91 94.0944 439.875 93.8515 439.825 93.683C439.776 93.5145 439.707 93.3211 439.617 93.103C439.528 92.875 439.414 92.7065 439.275 92.5974C439.146 92.4785 438.978 92.3793 438.77 92.3C438.571 92.2207 438.338 92.181 438.071 92.181C437.803 92.181 437.565 92.2207 437.357 92.3C437.159 92.3793 436.99 92.4785 436.851 92.5974C436.722 92.7065 436.613 92.875 436.524 93.103C436.435 93.3211 436.366 93.5145 436.316 93.683C436.266 93.8515 436.232 94.0944 436.212 94.4117C436.192 94.7289 436.177 94.9817 436.167 95.1701C436.167 95.3485 436.167 95.6212 436.167 95.988V101.698C436.167 102.065 436.167 102.343 436.167 102.531C436.177 102.71 436.192 102.958 436.212 103.275C436.232 103.592 436.266 103.835 436.316 104.003C436.366 104.172 436.435 104.37 436.524 104.598C436.613 104.816 436.722 104.985 436.851 105.104C436.99 105.213 437.159 105.307 437.357 105.386Z" fill="#52525B"/>
<path d="M446.904 108.361V89.3258H450.711V91.378C451.276 90.8625 451.737 90.4709 452.094 90.2032C452.451 89.9256 452.942 89.6678 453.566 89.4299C454.201 89.1821 454.875 89.0581 455.589 89.0581C456.402 89.0581 457.061 89.3556 457.567 89.9504C458.072 90.5452 458.325 91.2739 458.325 92.1364V108.361H454.518V94.0845C454.518 93.4203 454.424 92.9395 454.235 92.642C454.047 92.3347 453.665 92.181 453.09 92.181C452.763 92.181 452.436 92.2504 452.109 92.3892C451.792 92.5181 451.554 92.642 451.395 92.761C451.236 92.8701 451.008 93.0485 450.711 93.2964V108.361H446.904Z" fill="#52525B"/>
<path d="M467.039 108.628C466.117 108.628 465.314 108.47 464.63 108.152C463.956 107.835 463.416 107.424 463.009 106.918C462.613 106.403 462.291 105.748 462.043 104.955C461.795 104.152 461.621 103.354 461.522 102.561C461.433 101.758 461.378 100.826 461.359 99.7652C461.329 98.9324 461.329 98.0997 461.359 97.2669C461.388 96.2755 461.453 95.3981 461.552 94.6347C461.661 93.8615 461.844 93.1129 462.102 92.3892C462.36 91.6655 462.692 91.0707 463.099 90.6047C463.515 90.1388 464.055 89.767 464.719 89.4894C465.394 89.2019 466.177 89.0581 467.069 89.0581C467.882 89.0581 468.596 89.1672 469.21 89.3853C469.835 89.5935 470.351 89.9157 470.757 90.3519C471.173 90.7782 471.515 91.2541 471.783 91.7795C472.061 92.305 472.269 92.9444 472.408 93.6979C472.547 94.4414 472.641 95.1751 472.69 95.8988C472.75 96.6225 472.779 97.4553 472.779 98.3971V98.8432H465.166V99.795C465.166 99.9238 465.166 100.127 465.166 100.405C465.146 100.771 465.141 101.153 465.151 101.55C465.171 101.936 465.19 102.318 465.21 102.695C465.23 103.072 465.285 103.433 465.374 103.78C465.463 104.117 465.572 104.415 465.701 104.673C465.83 104.93 466.008 105.134 466.236 105.282C466.474 105.431 466.752 105.505 467.069 105.505C467.466 105.505 467.793 105.431 468.051 105.282C468.308 105.124 468.497 104.891 468.616 104.583C468.745 104.276 468.834 103.969 468.883 103.661C468.933 103.354 468.963 102.967 468.973 102.501V101.698H472.75V102.457C472.661 104.489 472.16 106.026 471.248 107.067C470.336 108.108 468.933 108.628 467.039 108.628ZM465.166 96.9397H468.943V95.7947C468.933 95.2891 468.903 94.8479 468.854 94.4712C468.804 94.0944 468.715 93.7177 468.586 93.341C468.467 92.9642 468.279 92.6767 468.021 92.4785C467.763 92.2802 467.446 92.181 467.069 92.181C466.682 92.181 466.355 92.2851 466.088 92.4933C465.83 92.7015 465.636 93.0039 465.508 93.4005C465.389 93.7871 465.304 94.1688 465.255 94.5455C465.205 94.9222 465.175 95.3733 465.166 95.8988V96.9397Z" fill="#52525B"/>
<path d="M596.389 109.034C595.54 108.087 594.82 107.031 594.248 105.893C593.345 104.109 592.096 102.525 590.576 101.235C589.055 99.9452 587.293 98.9747 585.395 98.381C583.734 97.8639 581.997 97.6445 580.261 97.7326C581.525 97.6599 582.769 98.0707 583.744 98.8828C584.719 99.6949 585.354 100.848 585.52 102.112C585.977 104.841 587.178 107.39 588.99 109.472C590.801 111.553 593.152 113.087 595.778 113.901C598.782 114.831 602.001 114.781 604.975 113.758C601.662 113.214 598.633 111.547 596.389 109.034Z" fill="#52525B"/>
<path d="M575.09 97.4624C575.476 99.1479 576.156 100.753 577.099 102.207C576.411 101.152 576.146 99.8784 576.357 98.6387C576.567 97.3989 577.238 96.2825 578.237 95.5098C580.359 93.7675 581.953 91.4748 582.839 88.8869C583.726 86.299 583.872 83.5176 583.26 80.8524C582.562 77.8036 580.906 75.0539 578.53 73.0003C579.713 76.1379 579.781 79.5823 578.723 82.7636C578.318 83.9646 577.755 85.1072 577.049 86.162C575.964 87.8189 575.226 89.6749 574.876 91.6202C574.527 93.5654 574.574 95.5605 575.015 97.4874L575.09 97.4624Z" fill="#52525B"/>
<path d="M582.492 103.33C581.93 104.464 580.968 105.341 579.797 105.784C578.626 106.227 577.334 106.204 576.179 105.719C573.634 104.751 570.874 104.52 568.207 105.053C565.541 105.585 563.072 106.861 561.078 108.737C558.805 110.886 557.261 113.713 556.672 116.81C558.787 114.201 561.716 112.403 564.973 111.713C566.197 111.459 567.447 111.36 568.695 111.42C570.652 111.523 572.609 111.227 574.452 110.549C576.294 109.87 577.984 108.824 579.422 107.472C580.68 106.284 581.725 104.883 582.508 103.33H582.492Z" fill="#52525B"/>
<line y1="-0.5" x2="18.0278" y2="-0.5" transform="matrix(-0.5547 0.83205 0.83205 0.5547 227 1)" stroke="#D4D4D8"/>
<line y1="-0.5" x2="18.0278" y2="-0.5" transform="matrix(-0.5547 0.83205 0.83205 0.5547 262 1)" stroke="#D4D4D8"/>
<line y1="-0.5" x2="18.0278" y2="-0.5" transform="matrix(-0.5547 0.83205 0.83205 0.5547 297 1)" stroke="#D4D4D8"/>
<line y1="-0.5" x2="18.0278" y2="-0.5" transform="matrix(-0.5547 0.83205 0.83205 0.5547 332 1)" stroke="#D4D4D8"/>
<line y1="-0.5" x2="18.0278" y2="-0.5" transform="matrix(-0.5547 0.83205 0.83205 0.5547 367 1)" stroke="#D4D4D8"/>
<line y1="-0.5" x2="18.0278" y2="-0.5" transform="matrix(-0.5547 0.83205 0.83205 0.5547 234 1)" stroke="#D4D4D8"/>
<line y1="-0.5" x2="18.0278" y2="-0.5" transform="matrix(-0.5547 0.83205 0.83205 0.5547 269 1)" stroke="#D4D4D8"/>
<line y1="-0.5" x2="18.0278" y2="-0.5" transform="matrix(-0.5547 0.83205 0.83205 0.5547 304 1)" stroke="#D4D4D8"/>
<line y1="-0.5" x2="18.0278" y2="-0.5" transform="matrix(-0.5547 0.83205 0.83205 0.5547 339 1)" stroke="#D4D4D8"/>
<line y1="-0.5" x2="18.0278" y2="-0.5" transform="matrix(-0.5547 0.83205 0.83205 0.5547 374 1)" stroke="#D4D4D8"/>
<line y1="-0.5" x2="18.0278" y2="-0.5" transform="matrix(-0.5547 0.83205 0.83205 0.5547 241 1)" stroke="#D4D4D8"/>
<line y1="-0.5" x2="18.0278" y2="-0.5" transform="matrix(-0.5547 0.83205 0.83205 0.5547 276 1)" stroke="#D4D4D8"/>
<line y1="-0.5" x2="18.0278" y2="-0.5" transform="matrix(-0.5547 0.83205 0.83205 0.5547 311 1)" stroke="#D4D4D8"/>
<line y1="-0.5" x2="18.0278" y2="-0.5" transform="matrix(-0.5547 0.83205 0.83205 0.5547 346 1)" stroke="#D4D4D8"/>
<line y1="-0.5" x2="18.0278" y2="-0.5" transform="matrix(-0.5547 0.83205 0.83205 0.5547 381 1)" stroke="#D4D4D8"/>
<line y1="-0.5" x2="18.0278" y2="-0.5" transform="matrix(-0.5547 0.83205 0.83205 0.5547 248 1)" stroke="#D4D4D8"/>
<line y1="-0.5" x2="18.0278" y2="-0.5" transform="matrix(-0.5547 0.83205 0.83205 0.5547 283 1)" stroke="#D4D4D8"/>
<line y1="-0.5" x2="18.0278" y2="-0.5" transform="matrix(-0.5547 0.83205 0.83205 0.5547 318 1)" stroke="#D4D4D8"/>
<line y1="-0.5" x2="18.0278" y2="-0.5" transform="matrix(-0.5547 0.83205 0.83205 0.5547 353 1)" stroke="#D4D4D8"/>
<line y1="-0.5" x2="18.0278" y2="-0.5" transform="matrix(-0.5547 0.83205 0.83205 0.5547 388 1)" stroke="#D4D4D8"/>
<line y1="-0.5" x2="18.0278" y2="-0.5" transform="matrix(-0.5547 0.83205 0.83205 0.5547 255 1)" stroke="#D4D4D8"/>
<line y1="-0.5" x2="18.0278" y2="-0.5" transform="matrix(-0.5547 0.83205 0.83205 0.5547 290 1)" stroke="#D4D4D8"/>
<line y1="-0.5" x2="18.0278" y2="-0.5" transform="matrix(-0.5547 0.83205 0.83205 0.5547 325 1)" stroke="#D4D4D8"/>
<line y1="-0.5" x2="18.0278" y2="-0.5" transform="matrix(-0.5547 0.83205 0.83205 0.5547 360 1)" stroke="#D4D4D8"/>
</svg>
